M48
;DRILL file {KiCad 4.0.2+e4-6225~38~ubuntu14.04.1-stable} date Mon Aug  1 22:56:21 2016
;FORMAT={-:-/ absolute / metric / decimal}
FMAT,2
METRIC,TZ
T1C0.254
T2C0.800
T3C1.016
T4C1.143
%
G90
G05
M71
T1
X165.481Y-178.816
X172.974Y-157.734
X172.974Y-160.02
X175.387Y-161.798
X176.022Y-181.61
X176.911Y-181.61
X177.419Y-179.959
X178.054Y-161.798
X178.493Y-180.992
X179.01Y-181.33
X179.324Y-172.847
X179.578Y-179.959
X179.959Y-161.544
X180.33Y-179.751
X180.34Y-175.895
X180.594Y-181.483
X180.721Y-171.45
X181.102Y-179.959
X181.991Y-179.959
X182.194Y-181.534
X182.245Y-171.45
X182.626Y-177.038
X182.753Y-179.705
X183.261Y-177.546
X183.698Y-181.483
X185.293Y-171.069
X185.801Y-172.466
X186.309Y-173.99
X186.69Y-169.037
X187.198Y-175.641
X187.452Y-171.831
X187.706Y-180.594
X188.239Y-181.991
X188.722Y-176.403
X189.357Y-175.133
X189.738Y-180.213
X190.246Y-171.577
X190.5Y-169.672
X190.856Y-174.904
X191.008Y-177.419
X191.129Y-178.949
X191.643Y-181.61
X192.151Y-175.768
X192.405Y-168.402
X192.405Y-173.355
X192.659Y-171.577
X192.994Y-180.265
X193.802Y-158.496
X193.826Y-181.925
X194.31Y-179.959
X194.564Y-171.323
X195.834Y-181.737
X196.469Y-168.783
X196.723Y-171.323
X197.231Y-164.592
X197.358Y-176.276
X197.866Y-180.721
X198.4Y-181.68
X198.449Y-168.835
X198.501Y-166.116
X199.136Y-173.863
X199.136Y-176.657
X199.644Y-179.705
X200.025Y-177.546
X200.66Y-182.245
X200.914Y-169.164
X201.168Y-158.496
X201.676Y-173.99
X203.073Y-176.149
X203.962Y-181.737
X204.089Y-177.292
X204.216Y-174.498
X204.54Y-166.39
X205.486Y-176.53
X205.502Y-168.799
X205.613Y-178.816
X205.771Y-166.452
X205.829Y-180.009
X206.134Y-165.443
X207.137Y-177.419
X207.18Y-181.73
X207.645Y-170.307
X207.899Y-176.149
X208.976Y-176.688
X209.042Y-171.577
X209.85Y-181.91
X212.217Y-173.736
X213.51Y-181.368
X213.741Y-171.069
X214.122Y-181.92
X214.376Y-173.99
X214.376Y-176.276
X214.686Y-179.761
X215.43Y-180.29
X215.519Y-177.8
X217.805Y-178.816
X217.932Y-172.593
X218.186Y-181.87
X218.821Y-169.799
X219.71Y-179.324
X219.837Y-175.895
X220.091Y-173.99
X220.23Y-181.39
X221.107Y-158.496
X221.234Y-181.864
X222.21Y-182.05
X222.225Y-181.381
X222.25Y-177.165
X222.631Y-180.213
X222.758Y-174.117
X223.699Y-180.34
X223.976Y-169.204
X224.409Y-181.864
X224.536Y-171.45
X226.949Y-166.624
X227.203Y-176.276
X228.219Y-158.496
X228.854Y-170.307
X229.997Y-173.609
T2
X179.45Y-165.7
X179.45Y-168.2
X180.451Y-163.699
X180.451Y-170.201
X181.449Y-165.7
X181.449Y-168.2
X182.45Y-163.699
X182.45Y-170.201
X183.45Y-165.7
X183.45Y-168.2
X184.449Y-163.699
X184.449Y-170.201
X185.449Y-165.7
X185.449Y-168.2
X186.45Y-163.699
X186.45Y-170.201
X187.448Y-165.7
X187.448Y-168.2
X188.449Y-163.699
X188.449Y-170.201
X189.45Y-165.7
X189.45Y-168.2
X192.45Y-163.699
X192.45Y-170.201
X193.45Y-165.7
X193.45Y-168.2
X194.449Y-163.699
X194.449Y-170.201
X195.449Y-165.7
X195.449Y-168.2
X196.45Y-163.699
X196.45Y-170.201
X197.448Y-165.7
X197.448Y-168.2
X198.449Y-163.699
X198.449Y-170.201
X208.025Y-165.7
X208.025Y-168.2
X209.026Y-163.699
X209.026Y-170.201
X210.024Y-165.7
X210.024Y-168.2
X211.025Y-163.699
X211.025Y-170.201
X212.025Y-165.7
X212.025Y-168.2
X213.024Y-163.699
X213.024Y-170.201
X214.024Y-165.7
X214.024Y-168.2
X215.025Y-163.699
X215.025Y-170.201
X216.023Y-165.7
X216.023Y-168.2
X217.024Y-163.699
X217.024Y-170.201
X218.025Y-165.7
X218.025Y-168.2
X221.025Y-163.699
X221.025Y-170.201
X222.025Y-165.7
X222.025Y-168.2
X223.024Y-163.699
X223.024Y-170.201
X224.024Y-165.7
X224.024Y-168.2
X225.025Y-163.699
X225.025Y-170.201
X226.023Y-165.7
X226.023Y-168.2
X227.024Y-163.699
X227.024Y-170.201
T3
X176.784Y-158.369
X179.324Y-158.369
X181.864Y-158.369
X184.404Y-158.369
X206.629Y-158.369
X209.169Y-158.369
X211.709Y-158.369
X214.249Y-158.369
T4
X166.624Y-164.338
X166.624Y-166.878
X166.624Y-169.418
X170.942Y-164.338
X170.942Y-166.878
X170.942Y-169.418
T0
M30
