G04 #@! TF.FileFunction,Legend,Top*
%FSLAX46Y46*%
G04 Gerber Fmt 4.6, Leading zero omitted, Abs format (unit mm)*
G04 Created by KiCad (PCBNEW 4.0.2+e4-6225~38~ubuntu14.04.1-stable) date Mon Aug  1 22:56:21 2016*
%MOMM*%
G01*
G04 APERTURE LIST*
%ADD10C,0.350000*%
%ADD11C,0.375000*%
%ADD12C,0.381000*%
%ADD13C,0.150000*%
%ADD14C,0.200000*%
%ADD15C,0.254000*%
G04 APERTURE END LIST*
D10*
D11*
X23214286Y-7928571D02*
X23571429Y-8928571D01*
X23928571Y-7928571D01*
X24785714Y-7428571D02*
X24928571Y-7428571D01*
X25071428Y-7500000D01*
X25142857Y-7571429D01*
X25214286Y-7714286D01*
X25285714Y-8000000D01*
X25285714Y-8357143D01*
X25214286Y-8642857D01*
X25142857Y-8785714D01*
X25071428Y-8857143D01*
X24928571Y-8928571D01*
X24785714Y-8928571D01*
X24642857Y-8857143D01*
X24571428Y-8785714D01*
X24500000Y-8642857D01*
X24428571Y-8357143D01*
X24428571Y-8000000D01*
X24500000Y-7714286D01*
X24571428Y-7571429D01*
X24642857Y-7500000D01*
X24785714Y-7428571D01*
X25928571Y-8785714D02*
X25999999Y-8857143D01*
X25928571Y-8928571D01*
X25857142Y-8857143D01*
X25928571Y-8785714D01*
X25928571Y-8928571D01*
X26571428Y-7571429D02*
X26642857Y-7500000D01*
X26785714Y-7428571D01*
X27142857Y-7428571D01*
X27285714Y-7500000D01*
X27357143Y-7571429D01*
X27428571Y-7714286D01*
X27428571Y-7857143D01*
X27357143Y-8071429D01*
X26500000Y-8928571D01*
X27428571Y-8928571D01*
X28071428Y-8357143D02*
X29214285Y-8357143D01*
X30714285Y-8928571D02*
X29857142Y-8928571D01*
X30285714Y-8928571D02*
X30285714Y-7428571D01*
X30142857Y-7642857D01*
X29999999Y-7785714D01*
X29857142Y-7857143D01*
X31357142Y-8357143D02*
X32499999Y-8357143D01*
X33857142Y-7928571D02*
X33857142Y-9142857D01*
X33785713Y-9285714D01*
X33714285Y-9357143D01*
X33571428Y-9428571D01*
X33357142Y-9428571D01*
X33214285Y-9357143D01*
X33857142Y-8857143D02*
X33714285Y-8928571D01*
X33428571Y-8928571D01*
X33285713Y-8857143D01*
X33214285Y-8785714D01*
X33142856Y-8642857D01*
X33142856Y-8214286D01*
X33214285Y-8071429D01*
X33285713Y-8000000D01*
X33428571Y-7928571D01*
X33714285Y-7928571D01*
X33857142Y-8000000D01*
X34428571Y-7428571D02*
X35357142Y-7428571D01*
X34857142Y-8000000D01*
X35071428Y-8000000D01*
X35214285Y-8071429D01*
X35285714Y-8142857D01*
X35357142Y-8285714D01*
X35357142Y-8642857D01*
X35285714Y-8785714D01*
X35214285Y-8857143D01*
X35071428Y-8928571D01*
X34642856Y-8928571D01*
X34499999Y-8857143D01*
X34428571Y-8785714D01*
X36642856Y-7428571D02*
X36357142Y-7428571D01*
X36214285Y-7500000D01*
X36142856Y-7571429D01*
X35999999Y-7785714D01*
X35928570Y-8071429D01*
X35928570Y-8642857D01*
X35999999Y-8785714D01*
X36071427Y-8857143D01*
X36214285Y-8928571D01*
X36499999Y-8928571D01*
X36642856Y-8857143D01*
X36714285Y-8785714D01*
X36785713Y-8642857D01*
X36785713Y-8285714D01*
X36714285Y-8142857D01*
X36642856Y-8071429D01*
X36499999Y-8000000D01*
X36214285Y-8000000D01*
X36071427Y-8071429D01*
X35999999Y-8142857D01*
X35928570Y-8285714D01*
X37428570Y-8928571D02*
X37428570Y-7428571D01*
X37428570Y-8000000D02*
X37571427Y-7928571D01*
X37857141Y-7928571D01*
X37999998Y-8000000D01*
X38071427Y-8071429D01*
X38142856Y-8214286D01*
X38142856Y-8642857D01*
X38071427Y-8785714D01*
X37999998Y-8857143D01*
X37857141Y-8928571D01*
X37571427Y-8928571D01*
X37428570Y-8857143D01*
X38642856Y-7428571D02*
X39571427Y-7428571D01*
X39071427Y-8000000D01*
X39285713Y-8000000D01*
X39428570Y-8071429D01*
X39499999Y-8142857D01*
X39571427Y-8285714D01*
X39571427Y-8642857D01*
X39499999Y-8785714D01*
X39428570Y-8857143D01*
X39285713Y-8928571D01*
X38857141Y-8928571D01*
X38714284Y-8857143D01*
X38642856Y-8785714D01*
X40785712Y-8857143D02*
X40642855Y-8928571D01*
X40357141Y-8928571D01*
X40214284Y-8857143D01*
X40142855Y-8714286D01*
X40142855Y-8142857D01*
X40214284Y-8000000D01*
X40357141Y-7928571D01*
X40642855Y-7928571D01*
X40785712Y-8000000D01*
X40857141Y-8142857D01*
X40857141Y-8285714D01*
X40142855Y-8428571D01*
X42142855Y-8928571D02*
X42142855Y-8142857D01*
X42071426Y-8000000D01*
X41928569Y-7928571D01*
X41642855Y-7928571D01*
X41499998Y-8000000D01*
X42142855Y-8857143D02*
X41999998Y-8928571D01*
X41642855Y-8928571D01*
X41499998Y-8857143D01*
X41428569Y-8714286D01*
X41428569Y-8571429D01*
X41499998Y-8428571D01*
X41642855Y-8357143D01*
X41999998Y-8357143D01*
X42142855Y-8285714D01*
X42785712Y-7571429D02*
X42857141Y-7500000D01*
X42999998Y-7428571D01*
X43357141Y-7428571D01*
X43499998Y-7500000D01*
X43571427Y-7571429D01*
X43642855Y-7714286D01*
X43642855Y-7857143D01*
X43571427Y-8071429D01*
X42714284Y-8928571D01*
X43642855Y-8928571D01*
X23142857Y-2441071D02*
X24000000Y-2441071D01*
X23571429Y-3941071D02*
X23571429Y-2441071D01*
X24785714Y-2441071D02*
X25071428Y-2441071D01*
X25214286Y-2512500D01*
X25357143Y-2655357D01*
X25428571Y-2941071D01*
X25428571Y-3441071D01*
X25357143Y-3726786D01*
X25214286Y-3869643D01*
X25071428Y-3941071D01*
X24785714Y-3941071D01*
X24642857Y-3869643D01*
X24500000Y-3726786D01*
X24428571Y-3441071D01*
X24428571Y-2941071D01*
X24500000Y-2655357D01*
X24642857Y-2512500D01*
X24785714Y-2441071D01*
X26571429Y-3155357D02*
X26071429Y-3155357D01*
X26071429Y-3941071D02*
X26071429Y-2441071D01*
X26785715Y-2441071D01*
X27357143Y-3155357D02*
X27857143Y-3155357D01*
X28071429Y-3941071D02*
X27357143Y-3941071D01*
X27357143Y-2441071D01*
X28071429Y-2441071D01*
X29642857Y-2941071D02*
X30214286Y-2941071D01*
X29857143Y-2441071D02*
X29857143Y-3726786D01*
X29928571Y-3869643D01*
X30071429Y-3941071D01*
X30214286Y-3941071D01*
X30928572Y-3941071D02*
X30785714Y-3869643D01*
X30714286Y-3798214D01*
X30642857Y-3655357D01*
X30642857Y-3226786D01*
X30714286Y-3083929D01*
X30785714Y-3012500D01*
X30928572Y-2941071D01*
X31142857Y-2941071D01*
X31285714Y-3012500D01*
X31357143Y-3083929D01*
X31428572Y-3226786D01*
X31428572Y-3655357D01*
X31357143Y-3798214D01*
X31285714Y-3869643D01*
X31142857Y-3941071D01*
X30928572Y-3941071D01*
X33142857Y-3512500D02*
X33857143Y-3512500D01*
X33000000Y-3941071D02*
X33500000Y-2441071D01*
X34000000Y-3941071D01*
X34357143Y-2441071D02*
X35357143Y-3941071D01*
X35357143Y-2441071D02*
X34357143Y-3941071D01*
X35928571Y-3941071D02*
X35928571Y-2441071D01*
X36928571Y-2441071D02*
X37214285Y-2441071D01*
X37357143Y-2512500D01*
X37500000Y-2655357D01*
X37571428Y-2941071D01*
X37571428Y-3441071D01*
X37500000Y-3726786D01*
X37357143Y-3869643D01*
X37214285Y-3941071D01*
X36928571Y-3941071D01*
X36785714Y-3869643D01*
X36642857Y-3726786D01*
X36571428Y-3441071D01*
X36571428Y-2941071D01*
X36642857Y-2655357D01*
X36785714Y-2512500D01*
X36928571Y-2441071D01*
X38214286Y-3941071D02*
X38214286Y-2441071D01*
X38714286Y-3512500D01*
X39214286Y-2441071D01*
X39214286Y-3941071D01*
X41000000Y-3512500D02*
X41714286Y-3512500D01*
X40857143Y-3941071D02*
X41357143Y-2441071D01*
X41857143Y-3941071D01*
X43000000Y-3941071D02*
X43000000Y-2441071D01*
X43000000Y-3869643D02*
X42857143Y-3941071D01*
X42571429Y-3941071D01*
X42428571Y-3869643D01*
X42357143Y-3798214D01*
X42285714Y-3655357D01*
X42285714Y-3226786D01*
X42357143Y-3083929D01*
X42428571Y-3012500D01*
X42571429Y-2941071D01*
X42857143Y-2941071D01*
X43000000Y-3012500D01*
X44357143Y-3941071D02*
X44357143Y-3155357D01*
X44285714Y-3012500D01*
X44142857Y-2941071D01*
X43857143Y-2941071D01*
X43714286Y-3012500D01*
X44357143Y-3869643D02*
X44214286Y-3941071D01*
X43857143Y-3941071D01*
X43714286Y-3869643D01*
X43642857Y-3726786D01*
X43642857Y-3583929D01*
X43714286Y-3441071D01*
X43857143Y-3369643D01*
X44214286Y-3369643D01*
X44357143Y-3298214D01*
X45071429Y-2941071D02*
X45071429Y-4441071D01*
X45071429Y-3012500D02*
X45214286Y-2941071D01*
X45500000Y-2941071D01*
X45642857Y-3012500D01*
X45714286Y-3083929D01*
X45785715Y-3226786D01*
X45785715Y-3655357D01*
X45714286Y-3798214D01*
X45642857Y-3869643D01*
X45500000Y-3941071D01*
X45214286Y-3941071D01*
X45071429Y-3869643D01*
X46214286Y-2941071D02*
X46785715Y-2941071D01*
X46428572Y-2441071D02*
X46428572Y-3726786D01*
X46500000Y-3869643D01*
X46642858Y-3941071D01*
X46785715Y-3941071D01*
X47857143Y-3869643D02*
X47714286Y-3941071D01*
X47428572Y-3941071D01*
X47285715Y-3869643D01*
X47214286Y-3726786D01*
X47214286Y-3155357D01*
X47285715Y-3012500D01*
X47428572Y-2941071D01*
X47714286Y-2941071D01*
X47857143Y-3012500D01*
X47928572Y-3155357D01*
X47928572Y-3298214D01*
X47214286Y-3441071D01*
X48571429Y-3941071D02*
X48571429Y-2941071D01*
X48571429Y-3226786D02*
X48642857Y-3083929D01*
X48714286Y-3012500D01*
X48857143Y-2941071D01*
X49000000Y-2941071D01*
X23142857Y-5416071D02*
X23714286Y-5416071D01*
X23357143Y-4916071D02*
X23357143Y-6201786D01*
X23428571Y-6344643D01*
X23571429Y-6416071D01*
X23714286Y-6416071D01*
X24428572Y-6416071D02*
X24285714Y-6344643D01*
X24214286Y-6273214D01*
X24142857Y-6130357D01*
X24142857Y-5701786D01*
X24214286Y-5558929D01*
X24285714Y-5487500D01*
X24428572Y-5416071D01*
X24642857Y-5416071D01*
X24785714Y-5487500D01*
X24857143Y-5558929D01*
X24928572Y-5701786D01*
X24928572Y-6130357D01*
X24857143Y-6273214D01*
X24785714Y-6344643D01*
X24642857Y-6416071D01*
X24428572Y-6416071D01*
X25357143Y-5416071D02*
X25928572Y-5416071D01*
X25571429Y-6416071D02*
X25571429Y-5130357D01*
X25642857Y-4987500D01*
X25785715Y-4916071D01*
X25928572Y-4916071D01*
X27000000Y-6344643D02*
X26857143Y-6416071D01*
X26571429Y-6416071D01*
X26428572Y-6344643D01*
X26357143Y-6201786D01*
X26357143Y-5630357D01*
X26428572Y-5487500D01*
X26571429Y-5416071D01*
X26857143Y-5416071D01*
X27000000Y-5487500D01*
X27071429Y-5630357D01*
X27071429Y-5773214D01*
X26357143Y-5916071D01*
X27714286Y-6273214D02*
X27785714Y-6344643D01*
X27714286Y-6416071D01*
X27642857Y-6344643D01*
X27714286Y-6273214D01*
X27714286Y-6416071D01*
X28428572Y-6416071D02*
X28428572Y-5416071D01*
X28428572Y-4916071D02*
X28357143Y-4987500D01*
X28428572Y-5058929D01*
X28500000Y-4987500D01*
X28428572Y-4916071D01*
X28428572Y-5058929D01*
X29357144Y-6416071D02*
X29214286Y-6344643D01*
X29142858Y-6273214D01*
X29071429Y-6130357D01*
X29071429Y-5701786D01*
X29142858Y-5558929D01*
X29214286Y-5487500D01*
X29357144Y-5416071D01*
X29571429Y-5416071D01*
X29714286Y-5487500D01*
X29785715Y-5558929D01*
X29857144Y-5701786D01*
X29857144Y-6130357D01*
X29785715Y-6273214D01*
X29714286Y-6344643D01*
X29571429Y-6416071D01*
X29357144Y-6416071D01*
D12*
X20376000Y-9732000D02*
X18626000Y-9732000D01*
X18626000Y-9732000D02*
X18626000Y-18732000D01*
X20376000Y-18732000D02*
X20376000Y-9732000D01*
X7376000Y-6259360D02*
X7126000Y-6009360D01*
X7376000Y-6302060D02*
X7376000Y-18732000D01*
X-4374000Y13169900D02*
X-4374000Y-11832000D01*
X3601720Y-6070600D02*
X3601720Y-11832000D01*
X3548380Y-11832000D02*
X-4374000Y-11832000D01*
X58623200Y-7832000D02*
X64541400Y-7832000D01*
X64538860Y13169900D02*
X-4374000Y13169900D01*
X64541400Y-7823200D02*
X64541400Y13169900D01*
X18626000Y-18732000D02*
X7376000Y-18732000D01*
X58626000Y-18732000D02*
X20376000Y-18732000D01*
X58626000Y-7832000D02*
X58626000Y-18732000D01*
X7171515Y-6055408D02*
G75*
G03X3641240Y-6024600I-1780275J-1719192D01*
G01*
D13*
X12681313Y-5777290D02*
X12681313Y-7777290D01*
X14731313Y-7777290D02*
X14731313Y-5777290D01*
X10904313Y-9738290D02*
X9904313Y-9738290D01*
X9904313Y-8388290D02*
X10904313Y-8388290D01*
X29734000Y9897000D02*
X31734000Y9897000D01*
X31734000Y11947000D02*
X29734000Y11947000D01*
X10904313Y-4531290D02*
X9904313Y-4531290D01*
X9904313Y-3181290D02*
X10904313Y-3181290D01*
X25519000Y10247000D02*
X24519000Y10247000D01*
X24519000Y11597000D02*
X25519000Y11597000D01*
X10204313Y-4773467D02*
G75*
G03X10204313Y-4773467I-100000J0D01*
G01*
X10654313Y-5023467D02*
X10154313Y-5023467D01*
X10654313Y-7923467D02*
X10654313Y-5023467D01*
X10154313Y-7923467D02*
X10654313Y-7923467D01*
X10154313Y-5023467D02*
X10154313Y-7923467D01*
X57039000Y9897000D02*
X59039000Y9897000D01*
X59039000Y11947000D02*
X57039000Y11947000D01*
X52824000Y10247000D02*
X51824000Y10247000D01*
X51824000Y11597000D02*
X52824000Y11597000D01*
X16510000Y12319000D02*
X8890000Y12319000D01*
X16510000Y9779000D02*
X8890000Y9779000D01*
X19330000Y9499000D02*
X17780000Y9499000D01*
X8890000Y12319000D02*
X8890000Y9779000D01*
X16510000Y9779000D02*
X16510000Y12319000D01*
X17780000Y12599000D02*
X19330000Y12599000D01*
X19330000Y12599000D02*
X19330000Y9499000D01*
X46355000Y12319000D02*
X38735000Y12319000D01*
X46355000Y9779000D02*
X38735000Y9779000D01*
X49175000Y9499000D02*
X47625000Y9499000D01*
X38735000Y12319000D02*
X38735000Y9779000D01*
X46355000Y9779000D02*
X46355000Y12319000D01*
X47625000Y12599000D02*
X49175000Y12599000D01*
X49175000Y12599000D02*
X49175000Y9499000D01*
X1524000Y-10541000D02*
X1778000Y-10541000D01*
X1778000Y-10541000D02*
X1778000Y-8255000D01*
X1778000Y-8255000D02*
X1524000Y-8255000D01*
X1524000Y-10541000D02*
X1524000Y-8255000D01*
X1524000Y-8255000D02*
X-127000Y-8255000D01*
X-1905000Y-10541000D02*
X-3556000Y-10541000D01*
X-3556000Y-10541000D02*
X-3556000Y-8255000D01*
X-3556000Y-8255000D02*
X-1905000Y-8255000D01*
X-127000Y-10541000D02*
X1524000Y-10541000D01*
X1524000Y-8001000D02*
X1778000Y-8001000D01*
X1778000Y-8001000D02*
X1778000Y-5715000D01*
X1778000Y-5715000D02*
X1524000Y-5715000D01*
X1524000Y-8001000D02*
X1524000Y-5715000D01*
X1524000Y-5715000D02*
X-127000Y-5715000D01*
X-1905000Y-8001000D02*
X-3556000Y-8001000D01*
X-3556000Y-8001000D02*
X-3556000Y-5715000D01*
X-3556000Y-5715000D02*
X-1905000Y-5715000D01*
X-127000Y-8001000D02*
X1524000Y-8001000D01*
X1524000Y-5461000D02*
X1778000Y-5461000D01*
X1778000Y-5461000D02*
X1778000Y-3175000D01*
X1778000Y-3175000D02*
X1524000Y-3175000D01*
X1524000Y-5461000D02*
X1524000Y-3175000D01*
X1524000Y-3175000D02*
X-127000Y-3175000D01*
X-1905000Y-5461000D02*
X-3556000Y-5461000D01*
X-3556000Y-5461000D02*
X-3556000Y-3175000D01*
X-3556000Y-3175000D02*
X-1905000Y-3175000D01*
X-127000Y-5461000D02*
X1524000Y-5461000D01*
X7738000Y4048000D02*
X7738000Y2048000D01*
X9788000Y2048000D02*
X9788000Y4048000D01*
X3540000Y10423000D02*
X1540000Y10423000D01*
X1540000Y8373000D02*
X3540000Y8373000D01*
X3540000Y12709000D02*
X1540000Y12709000D01*
X1540000Y10659000D02*
X3540000Y10659000D01*
X5969000Y-2286000D02*
X2540000Y-2286000D01*
X5969000Y7366000D02*
X2540000Y7366000D01*
X7112000Y-2794000D02*
X7112000Y7874000D01*
X6096000Y762000D02*
X7366000Y762000D01*
X6096000Y4318000D02*
X7366000Y4318000D01*
X5969000Y7874000D02*
X5969000Y-2794000D01*
X2540000Y-2794000D02*
X2540000Y7874000D01*
X7366000Y7874000D02*
X2540000Y7874000D01*
X7366000Y-2794000D02*
X2540000Y-2794000D01*
X7366000Y-2794000D02*
X7366000Y7874000D01*
X-1651000Y7366000D02*
X1778000Y7366000D01*
X-1651000Y-2286000D02*
X1778000Y-2286000D01*
X-2794000Y7874000D02*
X-2794000Y-2794000D01*
X-1778000Y4318000D02*
X-3048000Y4318000D01*
X-1778000Y762000D02*
X-3048000Y762000D01*
X-1651000Y-2794000D02*
X-1651000Y7874000D01*
X1778000Y7874000D02*
X1778000Y-2794000D01*
X-3048000Y-2794000D02*
X1778000Y-2794000D01*
X-3048000Y7874000D02*
X1778000Y7874000D01*
X-3048000Y7874000D02*
X-3048000Y-2794000D01*
D14*
X7374820Y-18731120D02*
X7374820Y-11731120D01*
X7374820Y-11731120D02*
X7374820Y-6231120D01*
X7374820Y-6231120D02*
X7124820Y-5981120D01*
X7124820Y-5981120D02*
G75*
G03X3624820Y-5981120I-1750000J-1750000D01*
G01*
X58624820Y-13481120D02*
X58624820Y-5981120D01*
X58624820Y-12981120D02*
X20374820Y-12981120D01*
X58624820Y-18731120D02*
X58624820Y-12981120D01*
X20374820Y-18731120D02*
X58624820Y-18731120D01*
X20374820Y-9731120D02*
X20374820Y-18731120D01*
X18624820Y-9731120D02*
X20374820Y-9731120D01*
X18624820Y-9731120D02*
X18624820Y-18731120D01*
X18624820Y-12981120D02*
X7374820Y-12981120D01*
X7374820Y-18731120D02*
X18624820Y-18731120D01*
D13*
X14063456Y-2879956D02*
X14111075Y-2927575D01*
X14158694Y-3070432D01*
X14158694Y-3165670D01*
X14111075Y-3308528D01*
X14015837Y-3403766D01*
X13920599Y-3451385D01*
X13730123Y-3499004D01*
X13587265Y-3499004D01*
X13396789Y-3451385D01*
X13301551Y-3403766D01*
X13206313Y-3308528D01*
X13158694Y-3165670D01*
X13158694Y-3070432D01*
X13206313Y-2927575D01*
X13253932Y-2879956D01*
X14158694Y-1927575D02*
X14158694Y-2499004D01*
X14158694Y-2213290D02*
X13158694Y-2213290D01*
X13301551Y-2308528D01*
X13396789Y-2403766D01*
X13444408Y-2499004D01*
X10491647Y-11039671D02*
X10158313Y-10563480D01*
X9920218Y-11039671D02*
X9920218Y-10039671D01*
X10301171Y-10039671D01*
X10396409Y-10087290D01*
X10444028Y-10134909D01*
X10491647Y-10230147D01*
X10491647Y-10373004D01*
X10444028Y-10468242D01*
X10396409Y-10515861D01*
X10301171Y-10563480D01*
X9920218Y-10563480D01*
X11444028Y-11039671D02*
X10872599Y-11039671D01*
X11158313Y-11039671D02*
X11158313Y-10039671D01*
X11063075Y-10182528D01*
X10967837Y-10277766D01*
X10872599Y-10325385D01*
X30170524Y8659857D02*
X30122905Y8612238D01*
X29980048Y8564619D01*
X29884810Y8564619D01*
X29741952Y8612238D01*
X29646714Y8707476D01*
X29599095Y8802714D01*
X29551476Y8993190D01*
X29551476Y9136048D01*
X29599095Y9326524D01*
X29646714Y9421762D01*
X29741952Y9517000D01*
X29884810Y9564619D01*
X29980048Y9564619D01*
X30122905Y9517000D01*
X30170524Y9469381D01*
X30599095Y8564619D02*
X30599095Y9564619D01*
X31170524Y8564619D01*
X31170524Y9564619D01*
X32170524Y8564619D02*
X31599095Y8564619D01*
X31884809Y8564619D02*
X31884809Y9564619D01*
X31789571Y9421762D01*
X31694333Y9326524D01*
X31599095Y9278905D01*
X9586694Y-2498956D02*
X9110503Y-2832290D01*
X9586694Y-3070385D02*
X8586694Y-3070385D01*
X8586694Y-2689432D01*
X8634313Y-2594194D01*
X8681932Y-2546575D01*
X8777170Y-2498956D01*
X8920027Y-2498956D01*
X9015265Y-2546575D01*
X9062884Y-2594194D01*
X9110503Y-2689432D01*
X9110503Y-3070385D01*
X8681932Y-2118004D02*
X8634313Y-2070385D01*
X8586694Y-1975147D01*
X8586694Y-1737051D01*
X8634313Y-1641813D01*
X8681932Y-1594194D01*
X8777170Y-1546575D01*
X8872408Y-1546575D01*
X9015265Y-1594194D01*
X9586694Y-2165623D01*
X9586694Y-1546575D01*
X24328524Y8818619D02*
X23995190Y9294810D01*
X23757095Y8818619D02*
X23757095Y9818619D01*
X24138048Y9818619D01*
X24233286Y9771000D01*
X24280905Y9723381D01*
X24328524Y9628143D01*
X24328524Y9485286D01*
X24280905Y9390048D01*
X24233286Y9342429D01*
X24138048Y9294810D01*
X23757095Y9294810D01*
X24757095Y8818619D02*
X24757095Y9818619D01*
X25328524Y8818619D01*
X25328524Y9818619D01*
X26328524Y8818619D02*
X25757095Y8818619D01*
X26042809Y8818619D02*
X26042809Y9818619D01*
X25947571Y9675762D01*
X25852333Y9580524D01*
X25757095Y9532905D01*
X7580381Y-6349905D02*
X8389905Y-6349905D01*
X8485143Y-6302286D01*
X8532762Y-6254667D01*
X8580381Y-6159429D01*
X8580381Y-5968952D01*
X8532762Y-5873714D01*
X8485143Y-5826095D01*
X8389905Y-5778476D01*
X7580381Y-5778476D01*
X8580381Y-4778476D02*
X8580381Y-5349905D01*
X8580381Y-5064191D02*
X7580381Y-5064191D01*
X7723238Y-5159429D01*
X7818476Y-5254667D01*
X7866095Y-5349905D01*
X57396143Y8659857D02*
X57348524Y8612238D01*
X57205667Y8564619D01*
X57110429Y8564619D01*
X56967571Y8612238D01*
X56872333Y8707476D01*
X56824714Y8802714D01*
X56777095Y8993190D01*
X56777095Y9136048D01*
X56824714Y9326524D01*
X56872333Y9421762D01*
X56967571Y9517000D01*
X57110429Y9564619D01*
X57205667Y9564619D01*
X57348524Y9517000D01*
X57396143Y9469381D01*
X57777095Y8612238D02*
X57919952Y8564619D01*
X58158048Y8564619D01*
X58253286Y8612238D01*
X58300905Y8659857D01*
X58348524Y8755095D01*
X58348524Y8850333D01*
X58300905Y8945571D01*
X58253286Y8993190D01*
X58158048Y9040810D01*
X57967571Y9088429D01*
X57872333Y9136048D01*
X57824714Y9183667D01*
X57777095Y9278905D01*
X57777095Y9374143D01*
X57824714Y9469381D01*
X57872333Y9517000D01*
X57967571Y9564619D01*
X58205667Y9564619D01*
X58348524Y9517000D01*
X59300905Y8564619D02*
X58729476Y8564619D01*
X59015190Y8564619D02*
X59015190Y9564619D01*
X58919952Y9421762D01*
X58824714Y9326524D01*
X58729476Y9278905D01*
X51808143Y8818619D02*
X51474809Y9294810D01*
X51236714Y8818619D02*
X51236714Y9818619D01*
X51617667Y9818619D01*
X51712905Y9771000D01*
X51760524Y9723381D01*
X51808143Y9628143D01*
X51808143Y9485286D01*
X51760524Y9390048D01*
X51712905Y9342429D01*
X51617667Y9294810D01*
X51236714Y9294810D01*
X52189095Y8866238D02*
X52331952Y8818619D01*
X52570048Y8818619D01*
X52665286Y8866238D01*
X52712905Y8913857D01*
X52760524Y9009095D01*
X52760524Y9104333D01*
X52712905Y9199571D01*
X52665286Y9247190D01*
X52570048Y9294810D01*
X52379571Y9342429D01*
X52284333Y9390048D01*
X52236714Y9437667D01*
X52189095Y9532905D01*
X52189095Y9628143D01*
X52236714Y9723381D01*
X52284333Y9771000D01*
X52379571Y9818619D01*
X52617667Y9818619D01*
X52760524Y9771000D01*
X53712905Y8818619D02*
X53141476Y8818619D01*
X53427190Y8818619D02*
X53427190Y9818619D01*
X53331952Y9675762D01*
X53236714Y9580524D01*
X53141476Y9532905D01*
X20320239Y11834857D02*
X20272620Y11787238D01*
X20129763Y11739619D01*
X20034525Y11739619D01*
X19891667Y11787238D01*
X19796429Y11882476D01*
X19748810Y11977714D01*
X19701191Y12168190D01*
X19701191Y12311048D01*
X19748810Y12501524D01*
X19796429Y12596762D01*
X19891667Y12692000D01*
X20034525Y12739619D01*
X20129763Y12739619D01*
X20272620Y12692000D01*
X20320239Y12644381D01*
X20748810Y11739619D02*
X20748810Y12739619D01*
X21177381Y12644381D02*
X21225000Y12692000D01*
X21320238Y12739619D01*
X21558334Y12739619D01*
X21653572Y12692000D01*
X21701191Y12644381D01*
X21748810Y12549143D01*
X21748810Y12453905D01*
X21701191Y12311048D01*
X21129762Y11739619D01*
X21748810Y11739619D01*
X22748810Y11834857D02*
X22701191Y11787238D01*
X22558334Y11739619D01*
X22463096Y11739619D01*
X22320238Y11787238D01*
X22225000Y11882476D01*
X22177381Y11977714D01*
X22129762Y12168190D01*
X22129762Y12311048D01*
X22177381Y12501524D01*
X22225000Y12596762D01*
X22320238Y12692000D01*
X22463096Y12739619D01*
X22558334Y12739619D01*
X22701191Y12692000D01*
X22748810Y12644381D01*
X23177381Y11739619D02*
X23177381Y12739619D01*
X23748810Y11739619D01*
X23748810Y12739619D01*
X24748810Y11739619D02*
X24177381Y11739619D01*
X24463095Y11739619D02*
X24463095Y12739619D01*
X24367857Y12596762D01*
X24272619Y12501524D01*
X24177381Y12453905D01*
X34210858Y11834857D02*
X34163239Y11787238D01*
X34020382Y11739619D01*
X33925144Y11739619D01*
X33782286Y11787238D01*
X33687048Y11882476D01*
X33639429Y11977714D01*
X33591810Y12168190D01*
X33591810Y12311048D01*
X33639429Y12501524D01*
X33687048Y12596762D01*
X33782286Y12692000D01*
X33925144Y12739619D01*
X34020382Y12739619D01*
X34163239Y12692000D01*
X34210858Y12644381D01*
X34639429Y11739619D02*
X34639429Y12739619D01*
X35068000Y12644381D02*
X35115619Y12692000D01*
X35210857Y12739619D01*
X35448953Y12739619D01*
X35544191Y12692000D01*
X35591810Y12644381D01*
X35639429Y12549143D01*
X35639429Y12453905D01*
X35591810Y12311048D01*
X35020381Y11739619D01*
X35639429Y11739619D01*
X36639429Y11834857D02*
X36591810Y11787238D01*
X36448953Y11739619D01*
X36353715Y11739619D01*
X36210857Y11787238D01*
X36115619Y11882476D01*
X36068000Y11977714D01*
X36020381Y12168190D01*
X36020381Y12311048D01*
X36068000Y12501524D01*
X36115619Y12596762D01*
X36210857Y12692000D01*
X36353715Y12739619D01*
X36448953Y12739619D01*
X36591810Y12692000D01*
X36639429Y12644381D01*
X37020381Y11787238D02*
X37163238Y11739619D01*
X37401334Y11739619D01*
X37496572Y11787238D01*
X37544191Y11834857D01*
X37591810Y11930095D01*
X37591810Y12025333D01*
X37544191Y12120571D01*
X37496572Y12168190D01*
X37401334Y12215810D01*
X37210857Y12263429D01*
X37115619Y12311048D01*
X37068000Y12358667D01*
X37020381Y12453905D01*
X37020381Y12549143D01*
X37068000Y12644381D01*
X37115619Y12692000D01*
X37210857Y12739619D01*
X37448953Y12739619D01*
X37591810Y12692000D01*
X38544191Y11739619D02*
X37972762Y11739619D01*
X38258476Y11739619D02*
X38258476Y12739619D01*
X38163238Y12596762D01*
X38068000Y12501524D01*
X37972762Y12453905D01*
X-1484238Y-11461714D02*
X-1531857Y-11499810D01*
X-1674714Y-11537905D01*
X-1769952Y-11537905D01*
X-1912810Y-11499810D01*
X-2008048Y-11423619D01*
X-2055667Y-11347429D01*
X-2103286Y-11195048D01*
X-2103286Y-11080762D01*
X-2055667Y-10928381D01*
X-2008048Y-10852190D01*
X-1912810Y-10776000D01*
X-1769952Y-10737905D01*
X-1674714Y-10737905D01*
X-1531857Y-10776000D01*
X-1484238Y-10814095D01*
X-1198524Y-10737905D02*
X-865191Y-11537905D01*
X-531857Y-10737905D01*
X325286Y-11537905D02*
X-246143Y-11537905D01*
X39571Y-11537905D02*
X39571Y-10737905D01*
X-55667Y-10852190D01*
X-150905Y-10928381D01*
X-246143Y-10966476D01*
X2897143Y-7580238D02*
X2944762Y-7627857D01*
X2992381Y-7770714D01*
X2992381Y-7865952D01*
X2944762Y-8008810D01*
X2849524Y-8104048D01*
X2754286Y-8151667D01*
X2563810Y-8199286D01*
X2420952Y-8199286D01*
X2230476Y-8151667D01*
X2135238Y-8104048D01*
X2040000Y-8008810D01*
X1992381Y-7865952D01*
X1992381Y-7770714D01*
X2040000Y-7627857D01*
X2087619Y-7580238D01*
X1992381Y-7294524D02*
X2992381Y-6961191D01*
X1992381Y-6627857D01*
X2087619Y-6342143D02*
X2040000Y-6294524D01*
X1992381Y-6199286D01*
X1992381Y-5961190D01*
X2040000Y-5865952D01*
X2087619Y-5818333D01*
X2182857Y-5770714D01*
X2278095Y-5770714D01*
X2420952Y-5818333D01*
X2992381Y-6389762D01*
X2992381Y-5770714D01*
X2706762Y-4548143D02*
X2659143Y-4595762D01*
X2516286Y-4643381D01*
X2421048Y-4643381D01*
X2278190Y-4595762D01*
X2182952Y-4500524D01*
X2135333Y-4405286D01*
X2087714Y-4214810D01*
X2087714Y-4071952D01*
X2135333Y-3881476D01*
X2182952Y-3786238D01*
X2278190Y-3691000D01*
X2421048Y-3643381D01*
X2516286Y-3643381D01*
X2659143Y-3691000D01*
X2706762Y-3738619D01*
X2992476Y-3643381D02*
X3325809Y-4643381D01*
X3659143Y-3643381D01*
X3897238Y-3643381D02*
X4516286Y-3643381D01*
X4182952Y-4024333D01*
X4325810Y-4024333D01*
X4421048Y-4071952D01*
X4468667Y-4119571D01*
X4516286Y-4214810D01*
X4516286Y-4452905D01*
X4468667Y-4548143D01*
X4421048Y-4595762D01*
X4325810Y-4643381D01*
X4040095Y-4643381D01*
X3944857Y-4595762D01*
X3897238Y-4548143D01*
X11152143Y2452762D02*
X11199762Y2405143D01*
X11247381Y2262286D01*
X11247381Y2167048D01*
X11199762Y2024190D01*
X11104524Y1928952D01*
X11009286Y1881333D01*
X10818810Y1833714D01*
X10675952Y1833714D01*
X10485476Y1881333D01*
X10390238Y1928952D01*
X10295000Y2024190D01*
X10247381Y2167048D01*
X10247381Y2262286D01*
X10295000Y2405143D01*
X10342619Y2452762D01*
X10247381Y2738476D02*
X11247381Y3071809D01*
X10247381Y3405143D01*
X10580714Y4167048D02*
X11247381Y4167048D01*
X10199762Y3928952D02*
X10914048Y3690857D01*
X10914048Y4309905D01*
X6516762Y9040857D02*
X6469143Y8993238D01*
X6326286Y8945619D01*
X6231048Y8945619D01*
X6088190Y8993238D01*
X5992952Y9088476D01*
X5945333Y9183714D01*
X5897714Y9374190D01*
X5897714Y9517048D01*
X5945333Y9707524D01*
X5992952Y9802762D01*
X6088190Y9898000D01*
X6231048Y9945619D01*
X6326286Y9945619D01*
X6469143Y9898000D01*
X6516762Y9850381D01*
X6802476Y9945619D02*
X7135809Y8945619D01*
X7469143Y9945619D01*
X8278667Y9945619D02*
X7802476Y9945619D01*
X7754857Y9469429D01*
X7802476Y9517048D01*
X7897714Y9564667D01*
X8135810Y9564667D01*
X8231048Y9517048D01*
X8278667Y9469429D01*
X8326286Y9374190D01*
X8326286Y9136095D01*
X8278667Y9040857D01*
X8231048Y8993238D01*
X8135810Y8945619D01*
X7897714Y8945619D01*
X7802476Y8993238D01*
X7754857Y9040857D01*
X6516762Y11326857D02*
X6469143Y11279238D01*
X6326286Y11231619D01*
X6231048Y11231619D01*
X6088190Y11279238D01*
X5992952Y11374476D01*
X5945333Y11469714D01*
X5897714Y11660190D01*
X5897714Y11803048D01*
X5945333Y11993524D01*
X5992952Y12088762D01*
X6088190Y12184000D01*
X6231048Y12231619D01*
X6326286Y12231619D01*
X6469143Y12184000D01*
X6516762Y12136381D01*
X6802476Y12231619D02*
X7135809Y11231619D01*
X7469143Y12231619D01*
X8231048Y12231619D02*
X8040571Y12231619D01*
X7945333Y12184000D01*
X7897714Y12136381D01*
X7802476Y11993524D01*
X7754857Y11803048D01*
X7754857Y11422095D01*
X7802476Y11326857D01*
X7850095Y11279238D01*
X7945333Y11231619D01*
X8135810Y11231619D01*
X8231048Y11279238D01*
X8278667Y11326857D01*
X8326286Y11422095D01*
X8326286Y11660190D01*
X8278667Y11755429D01*
X8231048Y11803048D01*
X8135810Y11850667D01*
X7945333Y11850667D01*
X7850095Y11803048D01*
X7802476Y11755429D01*
X7754857Y11660190D01*
X5842095Y-3262381D02*
X5842095Y-4071905D01*
X5889714Y-4167143D01*
X5937333Y-4214762D01*
X6032571Y-4262381D01*
X6223048Y-4262381D01*
X6318286Y-4214762D01*
X6365905Y-4167143D01*
X6413524Y-4071905D01*
X6413524Y-3262381D01*
X6842095Y-3357619D02*
X6889714Y-3310000D01*
X6984952Y-3262381D01*
X7223048Y-3262381D01*
X7318286Y-3310000D01*
X7365905Y-3357619D01*
X7413524Y-3452857D01*
X7413524Y-3548095D01*
X7365905Y-3690952D01*
X6794476Y-4262381D01*
X7413524Y-4262381D01*
X-3174905Y9310619D02*
X-3174905Y8501095D01*
X-3127286Y8405857D01*
X-3079667Y8358238D01*
X-2984429Y8310619D01*
X-2793952Y8310619D01*
X-2698714Y8358238D01*
X-2651095Y8405857D01*
X-2603476Y8501095D01*
X-2603476Y9310619D01*
X-2222524Y9310619D02*
X-1603476Y9310619D01*
X-1936810Y8929667D01*
X-1793952Y8929667D01*
X-1698714Y8882048D01*
X-1651095Y8834429D01*
X-1603476Y8739190D01*
X-1603476Y8501095D01*
X-1651095Y8405857D01*
X-1698714Y8358238D01*
X-1793952Y8310619D01*
X-2079667Y8310619D01*
X-2174905Y8358238D01*
X-2222524Y8405857D01*
D15*
X6155107Y-19102719D02*
X6735678Y-19102719D01*
X6445393Y-20118719D02*
X6445393Y-19102719D01*
X7267869Y-19102719D02*
X7461392Y-19102719D01*
X7558154Y-19151100D01*
X7654916Y-19247862D01*
X7703297Y-19441386D01*
X7703297Y-19780052D01*
X7654916Y-19973576D01*
X7558154Y-20070338D01*
X7461392Y-20118719D01*
X7267869Y-20118719D01*
X7171107Y-20070338D01*
X7074345Y-19973576D01*
X7025964Y-19780052D01*
X7025964Y-19441386D01*
X7074345Y-19247862D01*
X7171107Y-19151100D01*
X7267869Y-19102719D01*
X8477392Y-19586529D02*
X8138726Y-19586529D01*
X8138726Y-20118719D02*
X8138726Y-19102719D01*
X8622535Y-19102719D01*
X9009583Y-19586529D02*
X9348249Y-19586529D01*
X9493392Y-20118719D02*
X9009583Y-20118719D01*
X9009583Y-19102719D01*
X9493392Y-19102719D01*
X10461011Y-20118719D02*
X9880440Y-20118719D01*
X10170726Y-20118719D02*
X10170726Y-19102719D01*
X10073964Y-19247862D01*
X9977202Y-19344624D01*
X9880440Y-19393005D01*
M02*
