G04 #@! TF.FileFunction,Soldermask,Top*
%FSLAX46Y46*%
G04 Gerber Fmt 4.6, Leading zero omitted, Abs format (unit mm)*
G04 Created by KiCad (PCBNEW 4.0.2+e4-6225~38~ubuntu14.04.1-stable) date Mon Aug  1 22:56:21 2016*
%MOMM*%
G01*
G04 APERTURE LIST*
%ADD10C,0.350000*%
%ADD11C,0.381000*%
%ADD12C,1.198880*%
%ADD13R,1.600000X2.000000*%
%ADD14R,1.200000X0.900000*%
%ADD15R,2.000000X1.600000*%
%ADD16R,1.060000X0.650000*%
%ADD17R,1.727200X2.032000*%
%ADD18O,1.727200X2.032000*%
%ADD19R,1.524000X2.032000*%
%ADD20O,2.540000X2.032000*%
%ADD21R,0.650240X4.599940*%
%ADD22R,0.650240X3.599180*%
%ADD23C,0.650240*%
G04 APERTURE END LIST*
D10*
D11*
X20376000Y-9732000D02*
X18626000Y-9732000D01*
X18626000Y-9732000D02*
X18626000Y-18732000D01*
X20376000Y-18732000D02*
X20376000Y-9732000D01*
X7376000Y-6259360D02*
X7126000Y-6009360D01*
X7376000Y-6302060D02*
X7376000Y-18732000D01*
X-4374000Y13169900D02*
X-4374000Y-11832000D01*
X3601720Y-6070600D02*
X3601720Y-11832000D01*
X3548380Y-11832000D02*
X-4374000Y-11832000D01*
X58623200Y-7832000D02*
X64541400Y-7832000D01*
X64538860Y13169900D02*
X-4374000Y13169900D01*
X64541400Y-7823200D02*
X64541400Y13169900D01*
X18626000Y-18732000D02*
X7376000Y-18732000D01*
X58626000Y-18732000D02*
X20376000Y-18732000D01*
X58626000Y-7832000D02*
X58626000Y-18732000D01*
X7171515Y-6055408D02*
G75*
G03X3641240Y-6024600I-1780275J-1719192D01*
G01*
D12*
X54400660Y-783200D03*
X55401420Y1218320D03*
X56399640Y-783200D03*
X57400400Y1218320D03*
X58401160Y-783200D03*
X59399380Y1218320D03*
X60400140Y-783200D03*
X55401420Y3717680D03*
X57400400Y3717680D03*
X59399380Y3717680D03*
X54400660Y5719200D03*
X56399640Y5719200D03*
X58401160Y5719200D03*
X60400140Y5719200D03*
X51400920Y1218320D03*
X49399400Y1218320D03*
X47400420Y1218320D03*
X45401440Y1218320D03*
X43399920Y1218320D03*
X41400940Y1218320D03*
X42401700Y-783200D03*
X44400680Y-783200D03*
X46399660Y-783200D03*
X48401180Y-783200D03*
X50400160Y-783200D03*
X41400940Y3717680D03*
X42401700Y5719200D03*
X43399920Y3717680D03*
X44400680Y5719200D03*
X45401440Y3717680D03*
X46399660Y5719200D03*
X47400420Y3717680D03*
X48401180Y5719200D03*
X49399400Y3717680D03*
X50400160Y5719200D03*
X51400920Y3717680D03*
X25825660Y-783200D03*
X26826420Y1218320D03*
X27824640Y-783200D03*
X28825400Y1218320D03*
X29826160Y-783200D03*
X30824380Y1218320D03*
X31825140Y-783200D03*
X26826420Y3717680D03*
X28825400Y3717680D03*
X30824380Y3717680D03*
X25825660Y5719200D03*
X27824640Y5719200D03*
X29826160Y5719200D03*
X31825140Y5719200D03*
X22825920Y1218320D03*
X20824400Y1218320D03*
X18825420Y1218320D03*
X16826440Y1218320D03*
X14824920Y1218320D03*
X12825940Y1218320D03*
X13826700Y-783200D03*
X15825680Y-783200D03*
X17824660Y-783200D03*
X19826180Y-783200D03*
X21825160Y-783200D03*
X12825940Y3717680D03*
X13826700Y5719200D03*
X14824920Y3717680D03*
X15825680Y5719200D03*
X16826440Y3717680D03*
X17824660Y5719200D03*
X18825420Y3717680D03*
X19826180Y5719200D03*
X20824400Y3717680D03*
X21825160Y5719200D03*
X22825920Y3717680D03*
D13*
X13706313Y-8777290D03*
X13706313Y-4777290D03*
D14*
X9304313Y-9063290D03*
X11504313Y-9063290D03*
D15*
X32734000Y10922000D03*
X28734000Y10922000D03*
D14*
X9304313Y-3856290D03*
X11504313Y-3856290D03*
X23919000Y10922000D03*
X26119000Y10922000D03*
D16*
X9304313Y-5523467D03*
X9304313Y-6473467D03*
X9304313Y-7423467D03*
X11504313Y-7423467D03*
X11504313Y-5523467D03*
D15*
X60039000Y10922000D03*
X56039000Y10922000D03*
D14*
X51224000Y10922000D03*
X53424000Y10922000D03*
D17*
X17780000Y11049000D03*
D18*
X15240000Y11049000D03*
X12700000Y11049000D03*
X10160000Y11049000D03*
D17*
X47625000Y11049000D03*
D18*
X45085000Y11049000D03*
X42545000Y11049000D03*
X40005000Y11049000D03*
D19*
X635000Y-9398000D03*
X-2667000Y-9398000D03*
X635000Y-6858000D03*
X-2667000Y-6858000D03*
X635000Y-4318000D03*
X-2667000Y-4318000D03*
D13*
X8763000Y1048000D03*
X8763000Y5048000D03*
D15*
X540000Y9398000D03*
X4540000Y9398000D03*
X540000Y11684000D03*
X4540000Y11684000D03*
D20*
X4318000Y2540000D03*
X4318000Y0D03*
X4318000Y5080000D03*
X0Y2540000D03*
X0Y5080000D03*
X0Y0D03*
D21*
X8075220Y-15531120D03*
X9075980Y-15531120D03*
X10074200Y-15531120D03*
X11074960Y-15531120D03*
X12075720Y-15531120D03*
X13073940Y-15531120D03*
X14074700Y-15531120D03*
X15075460Y-15531120D03*
X16073680Y-15531120D03*
X17074440Y-15531120D03*
X18075200Y-15531120D03*
X21074940Y-15531120D03*
X22075700Y-15531120D03*
X23073920Y-15531120D03*
X24074680Y-15531120D03*
X25075440Y-15531120D03*
D22*
X26073660Y-15030740D03*
D21*
X27074420Y-15531120D03*
X28074820Y-15531120D03*
X29074820Y-15531120D03*
X30074820Y-15531120D03*
X31074820Y-15531120D03*
X32074820Y-15531120D03*
X33074820Y-15531120D03*
X34074820Y-15531120D03*
X35074820Y-15531120D03*
X36074820Y-15531120D03*
X37074820Y-15531120D03*
X38074820Y-15531120D03*
X39074820Y-15531120D03*
D22*
X40074820Y-15031120D03*
D21*
X41074820Y-15531120D03*
X42074820Y-15531120D03*
X43074820Y-15531120D03*
X44074820Y-15531120D03*
X45074820Y-15531120D03*
X46074820Y-15531120D03*
X47074820Y-15531120D03*
X48074820Y-15531120D03*
X49074820Y-15531120D03*
X50074820Y-15531120D03*
X51074820Y-15531120D03*
X52074820Y-15531120D03*
X53074820Y-15531120D03*
X54074820Y-15531120D03*
X55074820Y-15531120D03*
X56074820Y-15531120D03*
D22*
X57074820Y-15031120D03*
D21*
X58074820Y-15531120D03*
D23*
X8075220Y-17832360D03*
X9075980Y-17832360D03*
X10074200Y-17832360D03*
X11074960Y-17832360D03*
X12075720Y-17832360D03*
X13073940Y-17832360D03*
X14074700Y-17832360D03*
X15075460Y-17832360D03*
X16073680Y-17832360D03*
X17074440Y-17832360D03*
X18075200Y-17832360D03*
X21074940Y-17832360D03*
X22075700Y-17832360D03*
X23073920Y-17832360D03*
X24074680Y-17832360D03*
X25075440Y-17832360D03*
X27074420Y-17832360D03*
X28074820Y-17832360D03*
X29074820Y-17832360D03*
X30074820Y-17832360D03*
X31074820Y-17832360D03*
X32074820Y-17832360D03*
X33074820Y-17832360D03*
X34074820Y-17832360D03*
X35074820Y-17832360D03*
X36074820Y-17832360D03*
X37074820Y-17832360D03*
X38074820Y-17832360D03*
X39074820Y-17832360D03*
X41074820Y-17832360D03*
X42074820Y-17832360D03*
X43074820Y-17832360D03*
X44074820Y-17832360D03*
X45074820Y-17832360D03*
X46074820Y-17832360D03*
X47074820Y-17832360D03*
X48074820Y-17832360D03*
X49074820Y-17832360D03*
X50074820Y-17832360D03*
X51074820Y-17832360D03*
X52074820Y-17832360D03*
X53074820Y-17832360D03*
X54074820Y-17832360D03*
X55074820Y-17832360D03*
X56074820Y-17832360D03*
X58074820Y-17832360D03*
M02*
